<svg xmlns="http://www.w3.org/2000/svg" viewBox="0 0 512 512" role="img" aria-labelledby="app23-title app23-desc">
  <title id="app23-title">Frostwood Alkalmazások finomítás — Microsoft Edge böngésző ikon</title>
  <desc id="app23-desc">Finomított Frostwood izometrikus böngészőikon: kék-zöld hullámgyűrűs, nyitott körformájú Edge-jellegű sziluett a Microsoft Edge modulhoz.</desc>
  <defs>
    <linearGradient id="app23-bg" x1="0" y1="0" x2="1" y2="1">
      <stop offset="0%" stop-color="#FBFBFB"/>
      <stop offset="100%" stop-color="#EEF4FB"/>
    </linearGradient>
    <linearGradient id="app23-top" x1="0" y1="0" x2="1" y2="1">
      <stop offset="0%" stop-color="#F7F9FB"/>
      <stop offset="100%" stop-color="#D8E2EC"/>
    </linearGradient>
    <linearGradient id="app23-left" x1="0" y1="0" x2="0" y2="1">
      <stop offset="0%" stop-color="#D5DEE8"/>
      <stop offset="100%" stop-color="#C6D1DB"/>
    </linearGradient>
    <linearGradient id="app23-right" x1="0" y1="0" x2="0" y2="1">
      <stop offset="0%" stop-color="#C6D1DB"/>
      <stop offset="100%" stop-color="#B2C0CD"/>
    </linearGradient>
    <linearGradient id="app23-glass" x1="0" y1="0" x2="1" y2="1">
      <stop offset="0%" stop-color="#FFFFFF" stop-opacity="0.98"/>
      <stop offset="100%" stop-color="#DCEBFA" stop-opacity="0.94"/>
    </linearGradient>
    <linearGradient id="app23-blue" x1="0" y1="0" x2="1" y2="1">
      <stop offset="0%" stop-color="#BFD8F2"/>
      <stop offset="100%" stop-color="#5A7FA6"/>
    </linearGradient>
    <linearGradient id="app23-metal" x1="0" y1="0" x2="1" y2="1">
      <stop offset="0%" stop-color="#F4F7FA"/>
      <stop offset="100%" stop-color="#8D99A6"/>
    </linearGradient>
    <filter id="app23-baseShadow" x="-20%" y="-20%" width="140%" height="140%">
      <feDropShadow dx="0" dy="12" stdDeviation="12" flood-color="#8D99A6" flood-opacity="0.22"/>
    </filter>
    <filter id="app23-objectShadow" x="-20%" y="-20%" width="140%" height="140%">
      <feDropShadow dx="0" dy="8" stdDeviation="7" flood-color="#8D99A6" flood-opacity="0.22"/>
    </filter>
  </defs>

  <rect x="16" y="16" width="480" height="480" rx="36" fill="url(#app23-bg)"/>
  <g aria-hidden="true" opacity="0.12" fill="none" stroke="#8D99A6" stroke-width="2">
    <path d="M90 142 164 100 238 142 164 184Z"/>
    <path d="M164 184v70M90 142v70l74 42 74-42v-70"/>
    <path d="M292 100h94M292 124h68M292 148h86"/>
  </g>
  <ellipse cx="258" cy="394" rx="132" ry="32" fill="#8D99A6" opacity="0.18" aria-hidden="true"/>
  <g filter="url(#app23-baseShadow)">
    <polygon points="110,314 258,250 406,314 258,380" fill="url(#app23-top)" stroke="#415A70" stroke-width="3.5"/>
    <polygon points="110,314 110,362 258,428 258,380" fill="url(#app23-left)" stroke="#415A70" stroke-width="3.5"/>
    <polygon points="258,380 258,428 406,362 406,314" fill="url(#app23-right)" stroke="#415A70" stroke-width="3.5"/>
  </g>

  <g filter="url(#app23-objectShadow)">
    <polygon points="138,166 330,126 390,236 198,278" fill="url(#app23-glass)" stroke="#415A70" stroke-width="5"/>
    <polygon points="198,278 390,236 390,268 198,312" fill="#B2C0CD" stroke="#415A70" stroke-width="4"/>
    <polygon points="138,166 198,278 198,312 138,200" fill="#C6D1DB" stroke="#415A70" stroke-width="4"/>
    
    <path d="M270 160c50 0 88 34 88 78 0 48-44 84-96 76-42-6-72-34-72-72 0-36 32-62 74-60-30 14-42 36-32 58 12 28 54 32 78 8 20-20 12-58-40-88z" fill="#5A7FA6" stroke="#415A70" stroke-width="4.5"/>
    <path d="M190 256c10 48 78 76 132 34-18 34-58 54-104 42-40-10-64-42-58-78 10-54 74-80 124-52-44-4-76 14-94 54z" fill="#7A8F82" stroke="#415A70" stroke-width="4"/>
    <path d="M238 254c18 22 62 22 78-2-12 36-70 42-96 12z" fill="#FFFFFF" opacity="0.78" stroke="#415A70" stroke-width="3"/>

  </g>
</svg>