<svg xmlns="http://www.w3.org/2000/svg" viewBox="0 0 512 512" role="img" aria-labelledby="app29-title app29-desc">
  <title id="app29-title">Frostwood Alkalmazások mesterjavítás — Narrator hangszóró ikon</title>
  <desc id="app29-desc">Hangszóró és hanghullám ikon a Narrator modulhoz.</desc>
  <defs>
    <linearGradient id="app29-bg" x1="0" y1="0" x2="1" y2="1">
      <stop offset="0%" stop-color="#FBFBFB"/>
      <stop offset="100%" stop-color="#EEF4FB"/>
    </linearGradient>
    <linearGradient id="app29-top" x1="0" y1="0" x2="1" y2="1">
      <stop offset="0%" stop-color="#F7F9FB"/>
      <stop offset="100%" stop-color="#D8E2EC"/>
    </linearGradient>
    <linearGradient id="app29-left" x1="0" y1="0" x2="0" y2="1">
      <stop offset="0%" stop-color="#D5DEE8"/>
      <stop offset="100%" stop-color="#C6D1DB"/>
    </linearGradient>
    <linearGradient id="app29-right" x1="0" y1="0" x2="0" y2="1">
      <stop offset="0%" stop-color="#C6D1DB"/>
      <stop offset="100%" stop-color="#B2C0CD"/>
    </linearGradient>
    <linearGradient id="app29-glass" x1="0" y1="0" x2="1" y2="1">
      <stop offset="0%" stop-color="#FFFFFF" stop-opacity="0.98"/>
      <stop offset="100%" stop-color="#DCEBFA" stop-opacity="0.96"/>
    </linearGradient>
    <linearGradient id="app29-blue" x1="0" y1="0" x2="1" y2="1">
      <stop offset="0%" stop-color="#BFD8F2"/>
      <stop offset="100%" stop-color="#5A7FA6"/>
    </linearGradient>
    <linearGradient id="app29-metal" x1="0" y1="0" x2="1" y2="1">
      <stop offset="0%" stop-color="#F4F7FA"/>
      <stop offset="100%" stop-color="#8D99A6"/>
    </linearGradient>
    <filter id="app29-baseShadow" x="-20%" y="-20%" width="140%" height="140%">
      <feDropShadow dx="0" dy="12" stdDeviation="12" flood-color="#8D99A6" flood-opacity="0.22"/>
    </filter>
    <filter id="app29-objectShadow" x="-20%" y="-20%" width="140%" height="140%">
      <feDropShadow dx="0" dy="8" stdDeviation="7" flood-color="#8D99A6" flood-opacity="0.22"/>
    </filter>
  </defs>
  <rect x="16" y="16" width="480" height="480" rx="36" fill="url(#app29-bg)"/>
  <g aria-hidden="true" opacity="0.13" fill="none" stroke="#8D99A6" stroke-width="2">
    <path d="M90 142 164 100 238 142 164 184Z"/>
    <path d="M164 184v70M90 142v70l74 42 74-42v-70"/>
    <path d="M292 100h94M292 124h68M292 148h86"/>
  </g>
  <ellipse cx="258" cy="394" rx="132" ry="32" fill="#8D99A6" opacity="0.18" aria-hidden="true"/>
  <g filter="url(#app29-baseShadow)">
    <polygon points="110,314 258,250 406,314 258,380" fill="url(#app29-top)" stroke="#415A70" stroke-width="3.5"/>
    <polygon points="110,314 110,362 258,428 258,380" fill="url(#app29-left)" stroke="#415A70" stroke-width="3.5"/>
    <polygon points="258,380 258,428 406,362 406,314" fill="url(#app29-right)" stroke="#415A70" stroke-width="3.5"/>
  </g>

  <g filter="url(#app29-objectShadow)">
    <polygon points="142,172 326,132 386,236 202,276" fill="url(#app29-glass)" stroke="#415A70" stroke-width="4.5"/>
    <polygon points="202,276 386,236 386,266 202,308" fill="#B2C0CD" stroke="#415A70" stroke-width="3.5"/>
    <polygon points="142,172 202,276 202,308 142,202" fill="#C6D1DB" stroke="#415A70" stroke-width="3.5"/>
    
    <path d="M190 228h38l58-46v116l-58-46h-38z" fill="#F7F9FB" stroke="#415A70" stroke-width="4"/>
    <path d="M308 210q28 22 0 44M326 190q54 42 0 84" fill="none" stroke="#5A7FA6" stroke-width="7" stroke-linecap="round"/>
    <circle cx="220" cy="240" r="8" fill="#E8A86A" stroke="#415A70" stroke-width="3"/>

  </g>
</svg>