<svg xmlns="http://www.w3.org/2000/svg" viewBox="0 0 512 512" role="img" aria-labelledby="alapok07-title alapok07-desc">
  <title id="alapok07-title">Frostwood Alapok mesterjavítás — Ikonrendszer és JAWS billentyűzet ikon</title>
  <desc id="alapok07-desc">Izometrikus billentyűzet és headset ikon a JAWS vezérlés modulhoz.</desc>
  <defs>
    <linearGradient id="alapok07-bg" x1="0" y1="0" x2="1" y2="1">
      <stop offset="0%" stop-color="#FBFBFB"/>
      <stop offset="100%" stop-color="#EEF4FB"/>
    </linearGradient>
    <linearGradient id="alapok07-top" x1="0" y1="0" x2="1" y2="1">
      <stop offset="0%" stop-color="#F7F9FB"/>
      <stop offset="100%" stop-color="#D8E2EC"/>
    </linearGradient>
    <linearGradient id="alapok07-left" x1="0" y1="0" x2="0" y2="1">
      <stop offset="0%" stop-color="#D5DEE8"/>
      <stop offset="100%" stop-color="#C6D1DB"/>
    </linearGradient>
    <linearGradient id="alapok07-right" x1="0" y1="0" x2="0" y2="1">
      <stop offset="0%" stop-color="#C6D1DB"/>
      <stop offset="100%" stop-color="#B2C0CD"/>
    </linearGradient>
    <linearGradient id="alapok07-glass" x1="0" y1="0" x2="1" y2="1">
      <stop offset="0%" stop-color="#FFFFFF" stop-opacity="0.98"/>
      <stop offset="100%" stop-color="#DCEBFA" stop-opacity="0.96"/>
    </linearGradient>
    <linearGradient id="alapok07-blue" x1="0" y1="0" x2="1" y2="1">
      <stop offset="0%" stop-color="#BFD8F2"/>
      <stop offset="100%" stop-color="#5A7FA6"/>
    </linearGradient>
    <linearGradient id="alapok07-metal" x1="0" y1="0" x2="1" y2="1">
      <stop offset="0%" stop-color="#F4F7FA"/>
      <stop offset="100%" stop-color="#8D99A6"/>
    </linearGradient>
    <filter id="alapok07-baseShadow" x="-20%" y="-20%" width="140%" height="140%">
      <feDropShadow dx="0" dy="12" stdDeviation="12" flood-color="#8D99A6" flood-opacity="0.22"/>
    </filter>
    <filter id="alapok07-objectShadow" x="-20%" y="-20%" width="140%" height="140%">
      <feDropShadow dx="0" dy="8" stdDeviation="7" flood-color="#8D99A6" flood-opacity="0.22"/>
    </filter>
  </defs>
  <rect x="16" y="16" width="480" height="480" rx="36" fill="url(#alapok07-bg)"/>
  <g aria-hidden="true" opacity="0.13" fill="none" stroke="#8D99A6" stroke-width="2">
    <path d="M90 142 164 100 238 142 164 184Z"/>
    <path d="M164 184v70M90 142v70l74 42 74-42v-70"/>
    <path d="M292 100h94M292 124h68M292 148h86"/>
  </g>
  <ellipse cx="258" cy="394" rx="132" ry="32" fill="#8D99A6" opacity="0.18" aria-hidden="true"/>
  <g filter="url(#alapok07-baseShadow)">
    <polygon points="110,314 258,250 406,314 258,380" fill="url(#alapok07-top)" stroke="#415A70" stroke-width="3.5"/>
    <polygon points="110,314 110,362 258,428 258,380" fill="url(#alapok07-left)" stroke="#415A70" stroke-width="3.5"/>
    <polygon points="258,380 258,428 406,362 406,314" fill="url(#alapok07-right)" stroke="#415A70" stroke-width="3.5"/>
  </g>

  <g filter="url(#alapok07-objectShadow)">
    <polygon points="160,230 318,196 372,256 214,292" fill="#F7F9FB" stroke="#415A70" stroke-width="5"/>
    <path d="M190 238h28M230 230h28M270 222h28M310 214h28M204 258h34M248 250h34M292 242h34" stroke="#5A7FA6" stroke-width="5" stroke-linecap="round"/>
    <path d="M220 192c0-42 34-72 78-72s78 30 78 72" fill="none" stroke="#415A70" stroke-width="7" stroke-linecap="round"/>
    <rect x="202" y="184" width="28" height="46" rx="10" fill="#5A7FA6" stroke="#415A70" stroke-width="4"/>
    <rect x="364" y="184" width="28" height="46" rx="10" fill="#5A7FA6" stroke="#415A70" stroke-width="4"/>
  </g>
</svg>