<svg xmlns="http://www.w3.org/2000/svg" viewBox="0 0 512 512" role="img" aria-labelledby="app30-title app30-desc">
  <title id="app30-title">Frostwood Alkalmazások mesterjavítás — JAWS headset ikon</title>
  <desc id="app30-desc">Headset, mikrofonív és hangjel ikon a JAWS modulhoz.</desc>
  <defs>
    <linearGradient id="app30-bg" x1="0" y1="0" x2="1" y2="1">
      <stop offset="0%" stop-color="#FBFBFB"/>
      <stop offset="100%" stop-color="#EEF4FB"/>
    </linearGradient>
    <linearGradient id="app30-top" x1="0" y1="0" x2="1" y2="1">
      <stop offset="0%" stop-color="#F7F9FB"/>
      <stop offset="100%" stop-color="#D8E2EC"/>
    </linearGradient>
    <linearGradient id="app30-left" x1="0" y1="0" x2="0" y2="1">
      <stop offset="0%" stop-color="#D5DEE8"/>
      <stop offset="100%" stop-color="#C6D1DB"/>
    </linearGradient>
    <linearGradient id="app30-right" x1="0" y1="0" x2="0" y2="1">
      <stop offset="0%" stop-color="#C6D1DB"/>
      <stop offset="100%" stop-color="#B2C0CD"/>
    </linearGradient>
    <linearGradient id="app30-glass" x1="0" y1="0" x2="1" y2="1">
      <stop offset="0%" stop-color="#FFFFFF" stop-opacity="0.98"/>
      <stop offset="100%" stop-color="#DCEBFA" stop-opacity="0.96"/>
    </linearGradient>
    <linearGradient id="app30-blue" x1="0" y1="0" x2="1" y2="1">
      <stop offset="0%" stop-color="#BFD8F2"/>
      <stop offset="100%" stop-color="#5A7FA6"/>
    </linearGradient>
    <linearGradient id="app30-metal" x1="0" y1="0" x2="1" y2="1">
      <stop offset="0%" stop-color="#F4F7FA"/>
      <stop offset="100%" stop-color="#8D99A6"/>
    </linearGradient>
    <filter id="app30-baseShadow" x="-20%" y="-20%" width="140%" height="140%">
      <feDropShadow dx="0" dy="12" stdDeviation="12" flood-color="#8D99A6" flood-opacity="0.22"/>
    </filter>
    <filter id="app30-objectShadow" x="-20%" y="-20%" width="140%" height="140%">
      <feDropShadow dx="0" dy="8" stdDeviation="7" flood-color="#8D99A6" flood-opacity="0.22"/>
    </filter>
  </defs>
  <rect x="16" y="16" width="480" height="480" rx="36" fill="url(#app30-bg)"/>
  <g aria-hidden="true" opacity="0.13" fill="none" stroke="#8D99A6" stroke-width="2">
    <path d="M90 142 164 100 238 142 164 184Z"/>
    <path d="M164 184v70M90 142v70l74 42 74-42v-70"/>
    <path d="M292 100h94M292 124h68M292 148h86"/>
  </g>
  <ellipse cx="258" cy="394" rx="132" ry="32" fill="#8D99A6" opacity="0.18" aria-hidden="true"/>
  <g filter="url(#app30-baseShadow)">
    <polygon points="110,314 258,250 406,314 258,380" fill="url(#app30-top)" stroke="#415A70" stroke-width="3.5"/>
    <polygon points="110,314 110,362 258,428 258,380" fill="url(#app30-left)" stroke="#415A70" stroke-width="3.5"/>
    <polygon points="258,380 258,428 406,362 406,314" fill="url(#app30-right)" stroke="#415A70" stroke-width="3.5"/>
  </g>

  <g filter="url(#app30-objectShadow)">
    <polygon points="142,172 326,132 386,236 202,276" fill="url(#app30-glass)" stroke="#415A70" stroke-width="4.5"/>
    <polygon points="202,276 386,236 386,266 202,308" fill="#B2C0CD" stroke="#415A70" stroke-width="3.5"/>
    <polygon points="142,172 202,276 202,308 142,202" fill="#C6D1DB" stroke="#415A70" stroke-width="3.5"/>
    
    <path d="M204 228c0-44 34-76 78-76s78 32 78 76" fill="none" stroke="#415A70" stroke-width="8" stroke-linecap="round"/>
    <rect x="188" y="220" width="34" height="56" rx="12" fill="#5A7FA6" stroke="#415A70" stroke-width="4"/>
    <rect x="342" y="220" width="34" height="56" rx="12" fill="#5A7FA6" stroke="#415A70" stroke-width="4"/>
    <path d="M354 276c-10 28-34 38-70 38" fill="none" stroke="#415A70" stroke-width="6" stroke-linecap="round"/>
    <circle cx="276" cy="314" r="9" fill="#E8A86A" stroke="#415A70" stroke-width="3"/>
    <path d="M242 236h74" stroke="#7A8F82" stroke-width="6" stroke-linecap="round"/>

  </g>
</svg>