<svg xmlns="http://www.w3.org/2000/svg" viewBox="0 0 512 512" role="img" aria-labelledby="app24-title app24-desc">
  <title id="app24-title">Frostwood Alkalmazások finomítás — Google Chrome böngésző ikon</title>
  <desc id="app24-desc">Finomított Frostwood izometrikus böngészőikon: három nagy szegmensből és központi kék körből álló Chrome-jellegű sziluett a Google Chrome modulhoz.</desc>
  <defs>
    <linearGradient id="app24-bg" x1="0" y1="0" x2="1" y2="1">
      <stop offset="0%" stop-color="#FBFBFB"/>
      <stop offset="100%" stop-color="#EEF4FB"/>
    </linearGradient>
    <linearGradient id="app24-top" x1="0" y1="0" x2="1" y2="1">
      <stop offset="0%" stop-color="#F7F9FB"/>
      <stop offset="100%" stop-color="#D8E2EC"/>
    </linearGradient>
    <linearGradient id="app24-left" x1="0" y1="0" x2="0" y2="1">
      <stop offset="0%" stop-color="#D5DEE8"/>
      <stop offset="100%" stop-color="#C6D1DB"/>
    </linearGradient>
    <linearGradient id="app24-right" x1="0" y1="0" x2="0" y2="1">
      <stop offset="0%" stop-color="#C6D1DB"/>
      <stop offset="100%" stop-color="#B2C0CD"/>
    </linearGradient>
    <linearGradient id="app24-glass" x1="0" y1="0" x2="1" y2="1">
      <stop offset="0%" stop-color="#FFFFFF" stop-opacity="0.98"/>
      <stop offset="100%" stop-color="#DCEBFA" stop-opacity="0.94"/>
    </linearGradient>
    <linearGradient id="app24-blue" x1="0" y1="0" x2="1" y2="1">
      <stop offset="0%" stop-color="#BFD8F2"/>
      <stop offset="100%" stop-color="#5A7FA6"/>
    </linearGradient>
    <linearGradient id="app24-metal" x1="0" y1="0" x2="1" y2="1">
      <stop offset="0%" stop-color="#F4F7FA"/>
      <stop offset="100%" stop-color="#8D99A6"/>
    </linearGradient>
    <filter id="app24-baseShadow" x="-20%" y="-20%" width="140%" height="140%">
      <feDropShadow dx="0" dy="12" stdDeviation="12" flood-color="#8D99A6" flood-opacity="0.22"/>
    </filter>
    <filter id="app24-objectShadow" x="-20%" y="-20%" width="140%" height="140%">
      <feDropShadow dx="0" dy="8" stdDeviation="7" flood-color="#8D99A6" flood-opacity="0.22"/>
    </filter>
  </defs>

  <rect x="16" y="16" width="480" height="480" rx="36" fill="url(#app24-bg)"/>
  <g aria-hidden="true" opacity="0.12" fill="none" stroke="#8D99A6" stroke-width="2">
    <path d="M90 142 164 100 238 142 164 184Z"/>
    <path d="M164 184v70M90 142v70l74 42 74-42v-70"/>
    <path d="M292 100h94M292 124h68M292 148h86"/>
  </g>
  <ellipse cx="258" cy="394" rx="132" ry="32" fill="#8D99A6" opacity="0.18" aria-hidden="true"/>
  <g filter="url(#app24-baseShadow)">
    <polygon points="110,314 258,250 406,314 258,380" fill="url(#app24-top)" stroke="#415A70" stroke-width="3.5"/>
    <polygon points="110,314 110,362 258,428 258,380" fill="url(#app24-left)" stroke="#415A70" stroke-width="3.5"/>
    <polygon points="258,380 258,428 406,362 406,314" fill="url(#app24-right)" stroke="#415A70" stroke-width="3.5"/>
  </g>

  <g filter="url(#app24-objectShadow)">
    <polygon points="138,166 330,126 390,236 198,278" fill="url(#app24-glass)" stroke="#415A70" stroke-width="5"/>
    <polygon points="198,278 390,236 390,268 198,312" fill="#B2C0CD" stroke="#415A70" stroke-width="4"/>
    <polygon points="138,166 198,278 198,312 138,200" fill="#C6D1DB" stroke="#415A70" stroke-width="4"/>
    
    <circle cx="266" cy="232" r="72" fill="#F7F9FB" stroke="#415A70" stroke-width="5"/>
    <path d="M266 160a72 72 0 0 1 64 38h-72l-34-58a72 72 0 0 1 42 20z" fill="#E8A86A" stroke="#415A70" stroke-width="4"/>
    <path d="M330 198a72 72 0 0 1-24 94l-36-62 30-32z" fill="#7A8F82" stroke="#415A70" stroke-width="4"/>
    <path d="M306 292a72 72 0 0 1-102-22h70z" fill="#B88A5A" stroke="#415A70" stroke-width="4"/>
    <circle cx="266" cy="232" r="28" fill="#5A7FA6" stroke="#415A70" stroke-width="5"/>
    <circle cx="266" cy="232" r="12" fill="#FFFFFF" opacity="0.7"/>

  </g>
</svg>