<svg xmlns="http://www.w3.org/2000/svg" viewBox="0 0 512 512" role="img" aria-labelledby="alapok02-title alapok02-desc">
  <title id="alapok02-title">Frostwood Alapok mesterjavítás — Rendszerleírás rétegzett üveglap ikon</title>
  <desc id="alapok02-desc">Három lebegő, vastagabb izometrikus üveglap ikon a Rendszerleírás modulhoz.</desc>
  <defs>
    <linearGradient id="alapok02-bg" x1="0" y1="0" x2="1" y2="1">
      <stop offset="0%" stop-color="#FBFBFB"/>
      <stop offset="100%" stop-color="#EEF4FB"/>
    </linearGradient>
    <linearGradient id="alapok02-top" x1="0" y1="0" x2="1" y2="1">
      <stop offset="0%" stop-color="#F7F9FB"/>
      <stop offset="100%" stop-color="#D8E2EC"/>
    </linearGradient>
    <linearGradient id="alapok02-left" x1="0" y1="0" x2="0" y2="1">
      <stop offset="0%" stop-color="#D5DEE8"/>
      <stop offset="100%" stop-color="#C6D1DB"/>
    </linearGradient>
    <linearGradient id="alapok02-right" x1="0" y1="0" x2="0" y2="1">
      <stop offset="0%" stop-color="#C6D1DB"/>
      <stop offset="100%" stop-color="#B2C0CD"/>
    </linearGradient>
    <linearGradient id="alapok02-glass" x1="0" y1="0" x2="1" y2="1">
      <stop offset="0%" stop-color="#FFFFFF" stop-opacity="0.98"/>
      <stop offset="100%" stop-color="#DCEBFA" stop-opacity="0.96"/>
    </linearGradient>
    <linearGradient id="alapok02-blue" x1="0" y1="0" x2="1" y2="1">
      <stop offset="0%" stop-color="#BFD8F2"/>
      <stop offset="100%" stop-color="#5A7FA6"/>
    </linearGradient>
    <linearGradient id="alapok02-metal" x1="0" y1="0" x2="1" y2="1">
      <stop offset="0%" stop-color="#F4F7FA"/>
      <stop offset="100%" stop-color="#8D99A6"/>
    </linearGradient>
    <filter id="alapok02-baseShadow" x="-20%" y="-20%" width="140%" height="140%">
      <feDropShadow dx="0" dy="12" stdDeviation="12" flood-color="#8D99A6" flood-opacity="0.22"/>
    </filter>
    <filter id="alapok02-objectShadow" x="-20%" y="-20%" width="140%" height="140%">
      <feDropShadow dx="0" dy="8" stdDeviation="7" flood-color="#8D99A6" flood-opacity="0.22"/>
    </filter>
  </defs>
  <rect x="16" y="16" width="480" height="480" rx="36" fill="url(#alapok02-bg)"/>
  <g aria-hidden="true" opacity="0.13" fill="none" stroke="#8D99A6" stroke-width="2">
    <path d="M90 142 164 100 238 142 164 184Z"/>
    <path d="M164 184v70M90 142v70l74 42 74-42v-70"/>
    <path d="M292 100h94M292 124h68M292 148h86"/>
  </g>
  <ellipse cx="258" cy="394" rx="132" ry="32" fill="#8D99A6" opacity="0.18" aria-hidden="true"/>
  <g filter="url(#alapok02-baseShadow)">
    <polygon points="110,314 258,250 406,314 258,380" fill="url(#alapok02-top)" stroke="#415A70" stroke-width="3.5"/>
    <polygon points="110,314 110,362 258,428 258,380" fill="url(#alapok02-left)" stroke="#415A70" stroke-width="3.5"/>
    <polygon points="258,380 258,428 406,362 406,314" fill="url(#alapok02-right)" stroke="#415A70" stroke-width="3.5"/>
  </g>

  <g filter="url(#alapok02-objectShadow)">
    <polygon points="154,172 258,124 362,172 258,220" fill="#FFFFFF" opacity="0.88" stroke="#415A70" stroke-width="5"/>
    <polygon points="168,224 258,182 348,224 258,266" fill="#DCEBFA" opacity="0.9" stroke="#415A70" stroke-width="5"/>
    <polygon points="184,272 258,238 332,272 258,306" fill="#BFD8F2" opacity="0.95" stroke="#415A70" stroke-width="5"/>
    <circle cx="258" cy="172" r="8" fill="#E8A86A" stroke="#415A70" stroke-width="3"/>
    <circle cx="258" cy="224" r="8" fill="#5A7FA6" stroke="#415A70" stroke-width="3"/>
    <circle cx="258" cy="272" r="8" fill="#7A8F82" stroke="#415A70" stroke-width="3"/>
    <path d="M258 180v36M258 232v32" stroke="#415A70" stroke-width="4" stroke-linecap="round"/>
  </g>
</svg>