<svg xmlns="http://www.w3.org/2000/svg" viewBox="0 0 512 512" role="img" aria-labelledby="app22-title app22-desc">
  <title id="app22-title">Frostwood Alkalmazások mesterjavítás — Total Commander kétpaneles ikon</title>
  <desc id="app22-desc">Kétpaneles fájlkezelő ikon a Total Commander modulhoz.</desc>
  <defs>
    <linearGradient id="app22-bg" x1="0" y1="0" x2="1" y2="1">
      <stop offset="0%" stop-color="#FBFBFB"/>
      <stop offset="100%" stop-color="#EEF4FB"/>
    </linearGradient>
    <linearGradient id="app22-top" x1="0" y1="0" x2="1" y2="1">
      <stop offset="0%" stop-color="#F7F9FB"/>
      <stop offset="100%" stop-color="#D8E2EC"/>
    </linearGradient>
    <linearGradient id="app22-left" x1="0" y1="0" x2="0" y2="1">
      <stop offset="0%" stop-color="#D5DEE8"/>
      <stop offset="100%" stop-color="#C6D1DB"/>
    </linearGradient>
    <linearGradient id="app22-right" x1="0" y1="0" x2="0" y2="1">
      <stop offset="0%" stop-color="#C6D1DB"/>
      <stop offset="100%" stop-color="#B2C0CD"/>
    </linearGradient>
    <linearGradient id="app22-glass" x1="0" y1="0" x2="1" y2="1">
      <stop offset="0%" stop-color="#FFFFFF" stop-opacity="0.98"/>
      <stop offset="100%" stop-color="#DCEBFA" stop-opacity="0.96"/>
    </linearGradient>
    <linearGradient id="app22-blue" x1="0" y1="0" x2="1" y2="1">
      <stop offset="0%" stop-color="#BFD8F2"/>
      <stop offset="100%" stop-color="#5A7FA6"/>
    </linearGradient>
    <linearGradient id="app22-metal" x1="0" y1="0" x2="1" y2="1">
      <stop offset="0%" stop-color="#F4F7FA"/>
      <stop offset="100%" stop-color="#8D99A6"/>
    </linearGradient>
    <filter id="app22-baseShadow" x="-20%" y="-20%" width="140%" height="140%">
      <feDropShadow dx="0" dy="12" stdDeviation="12" flood-color="#8D99A6" flood-opacity="0.22"/>
    </filter>
    <filter id="app22-objectShadow" x="-20%" y="-20%" width="140%" height="140%">
      <feDropShadow dx="0" dy="8" stdDeviation="7" flood-color="#8D99A6" flood-opacity="0.22"/>
    </filter>
  </defs>
  <rect x="16" y="16" width="480" height="480" rx="36" fill="url(#app22-bg)"/>
  <g aria-hidden="true" opacity="0.13" fill="none" stroke="#8D99A6" stroke-width="2">
    <path d="M90 142 164 100 238 142 164 184Z"/>
    <path d="M164 184v70M90 142v70l74 42 74-42v-70"/>
    <path d="M292 100h94M292 124h68M292 148h86"/>
  </g>
  <ellipse cx="258" cy="394" rx="132" ry="32" fill="#8D99A6" opacity="0.18" aria-hidden="true"/>
  <g filter="url(#app22-baseShadow)">
    <polygon points="110,314 258,250 406,314 258,380" fill="url(#app22-top)" stroke="#415A70" stroke-width="3.5"/>
    <polygon points="110,314 110,362 258,428 258,380" fill="url(#app22-left)" stroke="#415A70" stroke-width="3.5"/>
    <polygon points="258,380 258,428 406,362 406,314" fill="url(#app22-right)" stroke="#415A70" stroke-width="3.5"/>
  </g>

  <g filter="url(#app22-objectShadow)">
    <polygon points="142,172 326,132 386,236 202,276" fill="url(#app22-glass)" stroke="#415A70" stroke-width="4.5"/>
    <polygon points="202,276 386,236 386,266 202,308" fill="#B2C0CD" stroke="#415A70" stroke-width="3.5"/>
    <polygon points="142,172 202,276 202,308 142,202" fill="#C6D1DB" stroke="#415A70" stroke-width="3.5"/>
    
    <polygon points="170,202 250,184 280,248 200,266" fill="#F7F9FB" stroke="#415A70" stroke-width="4"/>
    <polygon points="282,184 362,166 392,230 312,248" fill="#EAF1F8" stroke="#415A70" stroke-width="4"/>
    <path d="M186 218h50M192 236h42M296 200h50M302 218h42" stroke="#5A7FA6" stroke-width="5" stroke-linecap="round"/>
    <path d="M258 206l24 28" stroke="#E8A86A" stroke-width="6" stroke-linecap="round"/>

  </g>
</svg>