<svg xmlns="http://www.w3.org/2000/svg" viewBox="0 0 512 512" role="img" aria-labelledby="main-basics-title main-basics-desc">
  <title id="main-basics-title">Frostwood fő blokk — Alapok rétegzett kocka ikon</title>
  <desc id="main-basics-desc">Három vízszintes rétegre bontott kocka navigációs ikon az Alapok kategóriához.</desc>
  <defs>
    <linearGradient id="main-basics-bg" x1="0" y1="0" x2="1" y2="1">
      <stop offset="0%" stop-color="#FBFBFB"/>
      <stop offset="100%" stop-color="#EEF4FB"/>
    </linearGradient>
    <linearGradient id="main-basics-top" x1="0" y1="0" x2="1" y2="1">
      <stop offset="0%" stop-color="#F7F9FB"/>
      <stop offset="100%" stop-color="#D8E2EC"/>
    </linearGradient>
    <linearGradient id="main-basics-left" x1="0" y1="0" x2="0" y2="1">
      <stop offset="0%" stop-color="#D5DEE8"/>
      <stop offset="100%" stop-color="#C6D1DB"/>
    </linearGradient>
    <linearGradient id="main-basics-right" x1="0" y1="0" x2="0" y2="1">
      <stop offset="0%" stop-color="#C6D1DB"/>
      <stop offset="100%" stop-color="#B2C0CD"/>
    </linearGradient>
    <linearGradient id="main-basics-glass" x1="0" y1="0" x2="1" y2="1">
      <stop offset="0%" stop-color="#FFFFFF" stop-opacity="0.98"/>
      <stop offset="100%" stop-color="#DCEBFA" stop-opacity="0.96"/>
    </linearGradient>
    <linearGradient id="main-basics-blue" x1="0" y1="0" x2="1" y2="1">
      <stop offset="0%" stop-color="#BFD8F2"/>
      <stop offset="100%" stop-color="#5A7FA6"/>
    </linearGradient>
    <linearGradient id="main-basics-metal" x1="0" y1="0" x2="1" y2="1">
      <stop offset="0%" stop-color="#F4F7FA"/>
      <stop offset="100%" stop-color="#8D99A6"/>
    </linearGradient>
    <filter id="main-basics-baseShadow" x="-20%" y="-20%" width="140%" height="140%">
      <feDropShadow dx="0" dy="12" stdDeviation="12" flood-color="#8D99A6" flood-opacity="0.22"/>
    </filter>
    <filter id="main-basics-objectShadow" x="-20%" y="-20%" width="140%" height="140%">
      <feDropShadow dx="0" dy="8" stdDeviation="7" flood-color="#8D99A6" flood-opacity="0.22"/>
    </filter>
  </defs>
  <rect x="16" y="16" width="480" height="480" rx="36" fill="url(#main-basics-bg)"/>
  <g aria-hidden="true" opacity="0.13" fill="none" stroke="#8D99A6" stroke-width="2">
    <path d="M90 142 164 100 238 142 164 184Z"/>
    <path d="M164 184v70M90 142v70l74 42 74-42v-70"/>
    <path d="M292 100h94M292 124h68M292 148h86"/>
  </g>
  <ellipse cx="258" cy="394" rx="132" ry="32" fill="#8D99A6" opacity="0.18" aria-hidden="true"/>
  <g filter="url(#main-basics-baseShadow)">
    <polygon points="110,314 258,250 406,314 258,380" fill="url(#main-basics-top)" stroke="#415A70" stroke-width="3.5"/>
    <polygon points="110,314 110,362 258,428 258,380" fill="url(#main-basics-left)" stroke="#415A70" stroke-width="3.5"/>
    <polygon points="258,380 258,428 406,362 406,314" fill="url(#main-basics-right)" stroke="#415A70" stroke-width="3.5"/>
  </g>

  <g filter="url(#main-basics-objectShadow)">
    <polygon points="158,142 258,96 358,142 258,190" fill="#EAF5FF" stroke="#415A70" stroke-width="5"/>
    <polygon points="158,142 158,190 258,238 258,190" fill="#7FA6CC" stroke="#415A70" stroke-width="5"/>
    <polygon points="258,190 258,238 358,190 358,142" fill="#96BADA" stroke="#415A70" stroke-width="5"/>
    <polygon points="158,196 258,150 358,196 258,244" fill="#D7EBFF" stroke="#415A70" stroke-width="5"/>
    <polygon points="158,196 158,244 258,292 258,244" fill="#6F9BC6" stroke="#415A70" stroke-width="5"/>
    <polygon points="258,244 258,292 358,244 358,196" fill="#86B0D4" stroke="#415A70" stroke-width="5"/>
    <polygon points="158,250 258,204 358,250 258,298" fill="#BFD8F2" stroke="#415A70" stroke-width="5"/>
    <polygon points="158,250 158,300 258,350 258,298" fill="#5A7FA6" stroke="#415A70" stroke-width="5"/>
    <polygon points="258,298 258,350 358,300 358,250" fill="#7FA6CC" stroke="#415A70" stroke-width="5"/>
    <circle cx="258" cy="222" r="11" fill="#E8A86A" stroke="#415A70" stroke-width="4"/>
  </g>
</svg>