<svg xmlns="http://www.w3.org/2000/svg" viewBox="0 0 512 512" role="img" aria-labelledby="main-refs-title main-refs-desc">
  <title id="main-refs-title">Frostwood fő blokk — Referenciák archívum mappa ikon</title>
  <desc id="main-refs-desc">Félig nyitott archívum mappa navigációs ikon a Referenciák kategóriához.</desc>
  <defs>
    <linearGradient id="main-refs-bg" x1="0" y1="0" x2="1" y2="1">
      <stop offset="0%" stop-color="#FBFBFB"/>
      <stop offset="100%" stop-color="#EEF4FB"/>
    </linearGradient>
    <linearGradient id="main-refs-top" x1="0" y1="0" x2="1" y2="1">
      <stop offset="0%" stop-color="#F7F9FB"/>
      <stop offset="100%" stop-color="#D8E2EC"/>
    </linearGradient>
    <linearGradient id="main-refs-left" x1="0" y1="0" x2="0" y2="1">
      <stop offset="0%" stop-color="#D5DEE8"/>
      <stop offset="100%" stop-color="#C6D1DB"/>
    </linearGradient>
    <linearGradient id="main-refs-right" x1="0" y1="0" x2="0" y2="1">
      <stop offset="0%" stop-color="#C6D1DB"/>
      <stop offset="100%" stop-color="#B2C0CD"/>
    </linearGradient>
    <linearGradient id="main-refs-glass" x1="0" y1="0" x2="1" y2="1">
      <stop offset="0%" stop-color="#FFFFFF" stop-opacity="0.98"/>
      <stop offset="100%" stop-color="#DCEBFA" stop-opacity="0.96"/>
    </linearGradient>
    <linearGradient id="main-refs-blue" x1="0" y1="0" x2="1" y2="1">
      <stop offset="0%" stop-color="#BFD8F2"/>
      <stop offset="100%" stop-color="#5A7FA6"/>
    </linearGradient>
    <linearGradient id="main-refs-metal" x1="0" y1="0" x2="1" y2="1">
      <stop offset="0%" stop-color="#F4F7FA"/>
      <stop offset="100%" stop-color="#8D99A6"/>
    </linearGradient>
    <filter id="main-refs-baseShadow" x="-20%" y="-20%" width="140%" height="140%">
      <feDropShadow dx="0" dy="12" stdDeviation="12" flood-color="#8D99A6" flood-opacity="0.22"/>
    </filter>
    <filter id="main-refs-objectShadow" x="-20%" y="-20%" width="140%" height="140%">
      <feDropShadow dx="0" dy="8" stdDeviation="7" flood-color="#8D99A6" flood-opacity="0.22"/>
    </filter>
  </defs>
  <rect x="16" y="16" width="480" height="480" rx="36" fill="url(#main-refs-bg)"/>
  <g aria-hidden="true" opacity="0.13" fill="none" stroke="#8D99A6" stroke-width="2">
    <path d="M90 142 164 100 238 142 164 184Z"/>
    <path d="M164 184v70M90 142v70l74 42 74-42v-70"/>
    <path d="M292 100h94M292 124h68M292 148h86"/>
  </g>
  <ellipse cx="258" cy="394" rx="132" ry="32" fill="#8D99A6" opacity="0.18" aria-hidden="true"/>
  <g filter="url(#main-refs-baseShadow)">
    <polygon points="110,314 258,250 406,314 258,380" fill="url(#main-refs-top)" stroke="#415A70" stroke-width="3.5"/>
    <polygon points="110,314 110,362 258,428 258,380" fill="url(#main-refs-left)" stroke="#415A70" stroke-width="3.5"/>
    <polygon points="258,380 258,428 406,362 406,314" fill="url(#main-refs-right)" stroke="#415A70" stroke-width="3.5"/>
  </g>

  <g filter="url(#main-refs-objectShadow)">
    <path d="M142 204 230 182l26 22 118-26 30 108-224 52z" fill="#D8E2EC" stroke="#415A70" stroke-width="5" stroke-linejoin="round"/>
    <path d="M154 228 386 178 410 268 178 324z" fill="#FFFFFF" stroke="#415A70" stroke-width="5" stroke-linejoin="round"/>
    <path d="M168 252 398 204 410 268 178 324z" fill="#EAF1F8" stroke="#415A70" stroke-width="5" stroke-linejoin="round"/>
    <path d="M204 186l28-6 26 22-38 8z" fill="#E8A86A" stroke="#415A70" stroke-width="4"/>
    <path d="M270 172l34-8 14 24-36 8z" fill="#5A7FA6" stroke="#415A70" stroke-width="4"/>
    <path d="M332 160l34-8 14 24-36 8z" fill="#7A8F82" stroke="#415A70" stroke-width="4"/>
    <path d="M196 264h104M190 286h78M184 308h128" stroke="#8D99A6" stroke-width="5" stroke-linecap="round"/>
  </g>
</svg>