<svg xmlns="http://www.w3.org/2000/svg" viewBox="0 0 512 512" role="img" aria-labelledby="main-system-title main-system-desc">
  <title id="main-system-title">Frostwood fő blokk — Rendszer fogaskerekek ikon</title>
  <desc id="main-system-desc">Két mechanikus, egymásba kapcsolódó fogaskerék navigációs ikon a Rendszer kategóriához.</desc>
  <defs>
    <linearGradient id="main-system-bg" x1="0" y1="0" x2="1" y2="1">
      <stop offset="0%" stop-color="#FBFBFB"/>
      <stop offset="100%" stop-color="#EEF4FB"/>
    </linearGradient>
    <linearGradient id="main-system-top" x1="0" y1="0" x2="1" y2="1">
      <stop offset="0%" stop-color="#F7F9FB"/>
      <stop offset="100%" stop-color="#D8E2EC"/>
    </linearGradient>
    <linearGradient id="main-system-left" x1="0" y1="0" x2="0" y2="1">
      <stop offset="0%" stop-color="#D5DEE8"/>
      <stop offset="100%" stop-color="#C6D1DB"/>
    </linearGradient>
    <linearGradient id="main-system-right" x1="0" y1="0" x2="0" y2="1">
      <stop offset="0%" stop-color="#C6D1DB"/>
      <stop offset="100%" stop-color="#B2C0CD"/>
    </linearGradient>
    <linearGradient id="main-system-glass" x1="0" y1="0" x2="1" y2="1">
      <stop offset="0%" stop-color="#FFFFFF" stop-opacity="0.98"/>
      <stop offset="100%" stop-color="#DCEBFA" stop-opacity="0.96"/>
    </linearGradient>
    <linearGradient id="main-system-blue" x1="0" y1="0" x2="1" y2="1">
      <stop offset="0%" stop-color="#BFD8F2"/>
      <stop offset="100%" stop-color="#5A7FA6"/>
    </linearGradient>
    <linearGradient id="main-system-metal" x1="0" y1="0" x2="1" y2="1">
      <stop offset="0%" stop-color="#F4F7FA"/>
      <stop offset="100%" stop-color="#8D99A6"/>
    </linearGradient>
    <filter id="main-system-baseShadow" x="-20%" y="-20%" width="140%" height="140%">
      <feDropShadow dx="0" dy="12" stdDeviation="12" flood-color="#8D99A6" flood-opacity="0.22"/>
    </filter>
    <filter id="main-system-objectShadow" x="-20%" y="-20%" width="140%" height="140%">
      <feDropShadow dx="0" dy="8" stdDeviation="7" flood-color="#8D99A6" flood-opacity="0.22"/>
    </filter>
  </defs>
  <rect x="16" y="16" width="480" height="480" rx="36" fill="url(#main-system-bg)"/>
  <g aria-hidden="true" opacity="0.13" fill="none" stroke="#8D99A6" stroke-width="2">
    <path d="M90 142 164 100 238 142 164 184Z"/>
    <path d="M164 184v70M90 142v70l74 42 74-42v-70"/>
    <path d="M292 100h94M292 124h68M292 148h86"/>
  </g>
  <ellipse cx="258" cy="394" rx="132" ry="32" fill="#8D99A6" opacity="0.18" aria-hidden="true"/>
  <g filter="url(#main-system-baseShadow)">
    <polygon points="110,314 258,250 406,314 258,380" fill="url(#main-system-top)" stroke="#415A70" stroke-width="3.5"/>
    <polygon points="110,314 110,362 258,428 258,380" fill="url(#main-system-left)" stroke="#415A70" stroke-width="3.5"/>
    <polygon points="258,380 258,428 406,362 406,314" fill="url(#main-system-right)" stroke="#415A70" stroke-width="3.5"/>
  </g>

  <g filter="url(#main-system-objectShadow)" transform="rotate(-18 270 242) skewY(-6)">
    <path d="M 302.0,220.0 L 284.6,232.5 L 294.9,251.2 L 273.8,254.9 L 274.9,276.3 L 254.3,270.5 L 246.0,290.2 L 230.0,276.0 L 214.0,290.2 L 205.7,270.5 L 185.1,276.3 L 186.2,254.9 L 165.1,251.2 L 175.4,232.5 L 158.0,220.0 L 175.4,207.5 L 165.1,188.8 L 186.2,185.1 L 185.1,163.7 L 205.7,169.5 L 214.0,149.8 L 230.0,164.0 L 246.0,149.8 L 254.3,169.5 L 274.9,163.7 L 273.8,185.1 L 294.9,188.8 L 284.6,207.5 Z" fill="url(#main-system-metal)" stroke="#415A70" stroke-width="5" stroke-linejoin="round"/>
    <circle cx="230" cy="220" r="42" fill="#EAF1F8" stroke="#415A70" stroke-width="5"/>
    <circle cx="230" cy="220" r="18" fill="#FFFFFF" stroke="#415A70" stroke-width="4"/>
    <circle cx="230" cy="220" r="7" fill="#5A7FA6"/>
    <path d="M 369.5,267.2 L 354.8,275.6 L 359.0,292.0 L 342.1,291.9 L 337.5,308.2 L 322.9,299.7 L 310.8,311.5 L 302.4,296.8 L 286.0,301.0 L 286.1,284.1 L 269.8,279.5 L 278.3,264.9 L 266.5,252.8 L 281.2,244.4 L 277.0,228.0 L 293.9,228.1 L 298.5,211.8 L 313.1,220.3 L 325.2,208.5 L 333.6,223.2 L 350.0,219.0 L 349.9,235.9 L 366.2,240.5 L 357.7,255.1 Z" fill="#BFC7D1" stroke="#415A70" stroke-width="5" stroke-linejoin="round"/>
    <circle cx="318" cy="260" r="30" fill="#EAF1F8" stroke="#415A70" stroke-width="5"/>
    <circle cx="318" cy="260" r="13" fill="#FFFFFF" stroke="#415A70" stroke-width="4"/>
    <circle cx="318" cy="260" r="6" fill="#E8A86A"/>
    <path d="M174 308h190" stroke="#415A70" stroke-width="6" stroke-linecap="round" opacity="0.45"/>
  </g>
</svg>