<svg xmlns="http://www.w3.org/2000/svg" viewBox="0 0 512 512" role="img" aria-labelledby="main-quick-title main-quick-desc">
  <title id="main-quick-title">Frostwood fő blokk — Gyors áttekintés villám ikon</title>
  <desc id="main-quick-desc">Nagy, térhatású villám navigációs ikon a Gyors áttekintés kategóriához.</desc>
  <defs>
    <linearGradient id="main-quick-bg" x1="0" y1="0" x2="1" y2="1">
      <stop offset="0%" stop-color="#FBFBFB"/>
      <stop offset="100%" stop-color="#EEF4FB"/>
    </linearGradient>
    <linearGradient id="main-quick-top" x1="0" y1="0" x2="1" y2="1">
      <stop offset="0%" stop-color="#F7F9FB"/>
      <stop offset="100%" stop-color="#D8E2EC"/>
    </linearGradient>
    <linearGradient id="main-quick-left" x1="0" y1="0" x2="0" y2="1">
      <stop offset="0%" stop-color="#D5DEE8"/>
      <stop offset="100%" stop-color="#C6D1DB"/>
    </linearGradient>
    <linearGradient id="main-quick-right" x1="0" y1="0" x2="0" y2="1">
      <stop offset="0%" stop-color="#C6D1DB"/>
      <stop offset="100%" stop-color="#B2C0CD"/>
    </linearGradient>
    <linearGradient id="main-quick-glass" x1="0" y1="0" x2="1" y2="1">
      <stop offset="0%" stop-color="#FFFFFF" stop-opacity="0.98"/>
      <stop offset="100%" stop-color="#DCEBFA" stop-opacity="0.96"/>
    </linearGradient>
    <linearGradient id="main-quick-blue" x1="0" y1="0" x2="1" y2="1">
      <stop offset="0%" stop-color="#BFD8F2"/>
      <stop offset="100%" stop-color="#5A7FA6"/>
    </linearGradient>
    <linearGradient id="main-quick-metal" x1="0" y1="0" x2="1" y2="1">
      <stop offset="0%" stop-color="#F4F7FA"/>
      <stop offset="100%" stop-color="#8D99A6"/>
    </linearGradient>
    <filter id="main-quick-baseShadow" x="-20%" y="-20%" width="140%" height="140%">
      <feDropShadow dx="0" dy="12" stdDeviation="12" flood-color="#8D99A6" flood-opacity="0.22"/>
    </filter>
    <filter id="main-quick-objectShadow" x="-20%" y="-20%" width="140%" height="140%">
      <feDropShadow dx="0" dy="8" stdDeviation="7" flood-color="#8D99A6" flood-opacity="0.22"/>
    </filter>
  </defs>
  <rect x="16" y="16" width="480" height="480" rx="36" fill="url(#main-quick-bg)"/>
  <g aria-hidden="true" opacity="0.13" fill="none" stroke="#8D99A6" stroke-width="2">
    <path d="M90 142 164 100 238 142 164 184Z"/>
    <path d="M164 184v70M90 142v70l74 42 74-42v-70"/>
    <path d="M292 100h94M292 124h68M292 148h86"/>
  </g>
  <ellipse cx="258" cy="394" rx="132" ry="32" fill="#8D99A6" opacity="0.18" aria-hidden="true"/>
  <g filter="url(#main-quick-baseShadow)">
    <polygon points="110,314 258,250 406,314 258,380" fill="url(#main-quick-top)" stroke="#415A70" stroke-width="3.5"/>
    <polygon points="110,314 110,362 258,428 258,380" fill="url(#main-quick-left)" stroke="#415A70" stroke-width="3.5"/>
    <polygon points="258,380 258,428 406,362 406,314" fill="url(#main-quick-right)" stroke="#415A70" stroke-width="3.5"/>
  </g>

  <g filter="url(#main-quick-objectShadow)">
    <path d="M284 108 162 278h76l-38 128 152-190h-80l58-108Z" fill="#E8A86A" stroke="#415A70" stroke-width="7" stroke-linejoin="round"/>
    <path d="M284 108 330 108 272 216 352 216 200 406 238 278 162 278Z" fill="#D89045" opacity="0.38" stroke="#415A70" stroke-width="3" stroke-linejoin="round"/>
    <path d="M276 140 204 252h68l-24 82 78-96h-74l42-98z" fill="#FFF1D9" opacity="0.62" aria-hidden="true"/>
    <path d="M142 292h76M178 326h58M220 376h64" stroke="#415A70" stroke-width="5" stroke-linecap="round" opacity="0.55"/>
    <path d="M152 250h42M332 186h44M326 244h66" stroke="#5A7FA6" stroke-width="5" stroke-linecap="round" opacity="0.72"/>
  </g>
</svg>