<svg xmlns="http://www.w3.org/2000/svg" viewBox="0 0 512 512" role="img" aria-labelledby="ref91-title ref91-desc">
  <title id="ref91-title">Frostwood Referenciák mesterjavítás — Színkódok színminta ikon</title>
  <desc id="ref91-desc">Festékbolt-szerű színmintakártyák ikon a Színkódok modulhoz.</desc>
  <defs>
    <linearGradient id="ref91-bg" x1="0" y1="0" x2="1" y2="1">
      <stop offset="0%" stop-color="#FBFBFB"/>
      <stop offset="100%" stop-color="#EEF4FB"/>
    </linearGradient>
    <linearGradient id="ref91-top" x1="0" y1="0" x2="1" y2="1">
      <stop offset="0%" stop-color="#F7F9FB"/>
      <stop offset="100%" stop-color="#D8E2EC"/>
    </linearGradient>
    <linearGradient id="ref91-left" x1="0" y1="0" x2="0" y2="1">
      <stop offset="0%" stop-color="#D5DEE8"/>
      <stop offset="100%" stop-color="#C6D1DB"/>
    </linearGradient>
    <linearGradient id="ref91-right" x1="0" y1="0" x2="0" y2="1">
      <stop offset="0%" stop-color="#C6D1DB"/>
      <stop offset="100%" stop-color="#B2C0CD"/>
    </linearGradient>
    <linearGradient id="ref91-glass" x1="0" y1="0" x2="1" y2="1">
      <stop offset="0%" stop-color="#FFFFFF" stop-opacity="0.98"/>
      <stop offset="100%" stop-color="#DCEBFA" stop-opacity="0.96"/>
    </linearGradient>
    <linearGradient id="ref91-blue" x1="0" y1="0" x2="1" y2="1">
      <stop offset="0%" stop-color="#BFD8F2"/>
      <stop offset="100%" stop-color="#5A7FA6"/>
    </linearGradient>
    <linearGradient id="ref91-metal" x1="0" y1="0" x2="1" y2="1">
      <stop offset="0%" stop-color="#F4F7FA"/>
      <stop offset="100%" stop-color="#8D99A6"/>
    </linearGradient>
    <filter id="ref91-baseShadow" x="-20%" y="-20%" width="140%" height="140%">
      <feDropShadow dx="0" dy="12" stdDeviation="12" flood-color="#8D99A6" flood-opacity="0.22"/>
    </filter>
    <filter id="ref91-objectShadow" x="-20%" y="-20%" width="140%" height="140%">
      <feDropShadow dx="0" dy="8" stdDeviation="7" flood-color="#8D99A6" flood-opacity="0.22"/>
    </filter>
  </defs>
  <rect x="16" y="16" width="480" height="480" rx="36" fill="url(#ref91-bg)"/>
  <g aria-hidden="true" opacity="0.13" fill="none" stroke="#8D99A6" stroke-width="2">
    <path d="M90 142 164 100 238 142 164 184Z"/>
    <path d="M164 184v70M90 142v70l74 42 74-42v-70"/>
    <path d="M292 100h94M292 124h68M292 148h86"/>
  </g>
  <ellipse cx="258" cy="394" rx="132" ry="32" fill="#8D99A6" opacity="0.18" aria-hidden="true"/>
  <g filter="url(#ref91-baseShadow)">
    <polygon points="110,314 258,250 406,314 258,380" fill="url(#ref91-top)" stroke="#415A70" stroke-width="3.5"/>
    <polygon points="110,314 110,362 258,428 258,380" fill="url(#ref91-left)" stroke="#415A70" stroke-width="3.5"/>
    <polygon points="258,380 258,428 406,362 406,314" fill="url(#ref91-right)" stroke="#415A70" stroke-width="3.5"/>
  </g>

  <g filter="url(#ref91-objectShadow)">
    <rect x="180" y="170" width="130" height="170" rx="14" fill="#FFFFFF" stroke="#415A70" stroke-width="5"/>
    <rect x="208" y="150" width="130" height="170" rx="14" fill="#F7F9FB" stroke="#415A70" stroke-width="5"/>
    <rect x="232" y="184" width="74" height="22" rx="5" fill="#5A7FA6" stroke="#415A70" stroke-width="3"/>
    <rect x="232" y="218" width="74" height="22" rx="5" fill="#7A8F82" stroke="#415A70" stroke-width="3"/>
    <rect x="232" y="252" width="74" height="22" rx="5" fill="#E8A86A" stroke="#415A70" stroke-width="3"/>
    <path d="M232 296h60" stroke="#8D99A6" stroke-width="5" stroke-linecap="round"/>
  </g>
</svg>