<svg xmlns="http://www.w3.org/2000/svg" viewBox="0 0 512 512" role="img" aria-labelledby="sys11-title sys11-desc">
  <title id="sys11-title">Frostwood Rendszer mesterjavítás v3 — Munkaasztal modell ikon</title>
  <desc id="sys11-desc">Sötét Frostwood izometrikus ikon: monitorral ellátott minimalista íróasztal jelzi a munkaasztal-modellt.</desc>
  <defs>
    <linearGradient id="sys11-bg" x1="0" y1="0" x2="1" y2="1"><stop offset="0%" stop-color="#1C1C1C"/><stop offset="100%" stop-color="#243140"/></linearGradient>
    <linearGradient id="sys11-top" x1="0" y1="0" x2="1" y2="1"><stop offset="0%" stop-color="#2A2A2A"/><stop offset="100%" stop-color="#32485C"/></linearGradient>
    <linearGradient id="sys11-left" x1="0" y1="0" x2="0" y2="1"><stop offset="0%" stop-color="#384C5F"/><stop offset="100%" stop-color="#2E4050"/></linearGradient>
    <linearGradient id="sys11-right" x1="0" y1="0" x2="0" y2="1"><stop offset="0%" stop-color="#4A6176"/><stop offset="100%" stop-color="#34495B"/></linearGradient>
    <linearGradient id="sys11-glass" x1="0" y1="0" x2="1" y2="1"><stop offset="0%" stop-color="#FFFFFF" stop-opacity="0.95"/><stop offset="100%" stop-color="#DCEBFA" stop-opacity="0.90"/></linearGradient>
    <linearGradient id="sys11-metal" x1="0" y1="0" x2="1" y2="1"><stop offset="0%" stop-color="#F4F7FA"/><stop offset="100%" stop-color="#8D99A6"/></linearGradient>
    <linearGradient id="sys11-blue" x1="0" y1="0" x2="1" y2="1"><stop offset="0%" stop-color="#BFD8F2"/><stop offset="100%" stop-color="#5A7FA6"/></linearGradient>
    <filter id="sys11-baseShadow" x="-20%" y="-20%" width="140%" height="140%"><feDropShadow dx="0" dy="12" stdDeviation="12" flood-color="#000000" flood-opacity="0.24"/></filter>
    <filter id="sys11-objectShadow" x="-20%" y="-20%" width="140%" height="140%"><feDropShadow dx="0" dy="8" stdDeviation="7" flood-color="#000000" flood-opacity="0.24"/></filter>
  </defs>
  <rect x="16" y="16" width="480" height="480" rx="36" fill="url(#sys11-bg)"/>
  <g aria-hidden="true" opacity="0.13" fill="none" stroke="#D7E0E8" stroke-width="2">
    <path d="M90 142 164 100 238 142 164 184Z"/>
    <path d="M164 184v70M90 142v70l74 42 74-42v-70"/>
    <path d="M292 100h94M292 124h68M292 148h86"/>
  </g>
  <ellipse cx="258" cy="394" rx="132" ry="32" fill="#000000" opacity="0.20" aria-hidden="true"/>
  <g filter="url(#sys11-baseShadow)">
    <polygon points="110,314 258,250 406,314 258,380" fill="url(#sys11-top)" stroke="#D7E0E8" stroke-width="3.5"/>
    <polygon points="110,314 110,362 258,428 258,380" fill="url(#sys11-left)" stroke="#D7E0E8" stroke-width="3.5"/>
    <polygon points="258,380 258,428 406,362 406,314" fill="url(#sys11-right)" stroke="#D7E0E8" stroke-width="3.5"/>
  </g>

  <g filter="url(#sys11-objectShadow)">
    <polygon points="170,244 338,206 374,260 206,300" fill="#D7E0E8" stroke="#D7E0E8" stroke-width="4"/>
    <polygon points="206,300 374,260 374,286 206,328" fill="#4A6176" stroke="#D7E0E8" stroke-width="3"/>
    <polygon points="206,154 324,130 350,206 232,232" fill="#1A1A1A" stroke="#D7E0E8" stroke-width="5"/>
    <polygon points="222,170 310,152 328,198 240,218" fill="#5A7FA6" stroke="#D7E0E8" stroke-width="3"/>
    <path d="M262 230v40M228 274h84" stroke="#D7E0E8" stroke-width="6" stroke-linecap="round"/>
  </g>
</svg>