<svg xmlns="http://www.w3.org/2000/svg" viewBox="0 0 512 512" role="img" aria-labelledby="sys14-title sys14-desc">
  <title id="sys14-title">Frostwood Rendszer mesterjavítás v3 — Travel mód repülőgép ikon</title>
  <desc id="sys14-desc">Sötét Frostwood izometrikus ikon: repülőgép jelzi a Travel módot.</desc>
  <defs>
    <linearGradient id="sys14-bg" x1="0" y1="0" x2="1" y2="1"><stop offset="0%" stop-color="#1C1C1C"/><stop offset="100%" stop-color="#243140"/></linearGradient>
    <linearGradient id="sys14-top" x1="0" y1="0" x2="1" y2="1"><stop offset="0%" stop-color="#2A2A2A"/><stop offset="100%" stop-color="#32485C"/></linearGradient>
    <linearGradient id="sys14-left" x1="0" y1="0" x2="0" y2="1"><stop offset="0%" stop-color="#384C5F"/><stop offset="100%" stop-color="#2E4050"/></linearGradient>
    <linearGradient id="sys14-right" x1="0" y1="0" x2="0" y2="1"><stop offset="0%" stop-color="#4A6176"/><stop offset="100%" stop-color="#34495B"/></linearGradient>
    <linearGradient id="sys14-glass" x1="0" y1="0" x2="1" y2="1"><stop offset="0%" stop-color="#FFFFFF" stop-opacity="0.95"/><stop offset="100%" stop-color="#DCEBFA" stop-opacity="0.90"/></linearGradient>
    <linearGradient id="sys14-metal" x1="0" y1="0" x2="1" y2="1"><stop offset="0%" stop-color="#F4F7FA"/><stop offset="100%" stop-color="#8D99A6"/></linearGradient>
    <linearGradient id="sys14-blue" x1="0" y1="0" x2="1" y2="1"><stop offset="0%" stop-color="#BFD8F2"/><stop offset="100%" stop-color="#5A7FA6"/></linearGradient>
    <filter id="sys14-baseShadow" x="-20%" y="-20%" width="140%" height="140%"><feDropShadow dx="0" dy="12" stdDeviation="12" flood-color="#000000" flood-opacity="0.24"/></filter>
    <filter id="sys14-objectShadow" x="-20%" y="-20%" width="140%" height="140%"><feDropShadow dx="0" dy="8" stdDeviation="7" flood-color="#000000" flood-opacity="0.24"/></filter>
  </defs>
  <rect x="16" y="16" width="480" height="480" rx="36" fill="url(#sys14-bg)"/>
  <g aria-hidden="true" opacity="0.13" fill="none" stroke="#D7E0E8" stroke-width="2">
    <path d="M90 142 164 100 238 142 164 184Z"/>
    <path d="M164 184v70M90 142v70l74 42 74-42v-70"/>
    <path d="M292 100h94M292 124h68M292 148h86"/>
  </g>
  <ellipse cx="258" cy="394" rx="132" ry="32" fill="#000000" opacity="0.20" aria-hidden="true"/>
  <g filter="url(#sys14-baseShadow)">
    <polygon points="110,314 258,250 406,314 258,380" fill="url(#sys14-top)" stroke="#D7E0E8" stroke-width="3.5"/>
    <polygon points="110,314 110,362 258,428 258,380" fill="url(#sys14-left)" stroke="#D7E0E8" stroke-width="3.5"/>
    <polygon points="258,380 258,428 406,362 406,314" fill="url(#sys14-right)" stroke="#D7E0E8" stroke-width="3.5"/>
  </g>

  <g filter="url(#sys14-objectShadow)">
    <path d="M158 244 354 142c18-10 36 8 26 26L278 364l-34-92-86-28z" fill="#D7E0E8" stroke="#D7E0E8" stroke-width="5" stroke-linejoin="round"/>
    <path d="M244 272 354 142 278 364z" fill="#5A7FA6" stroke="#D7E0E8" stroke-width="3"/>
    <path d="M206 260l-46 58 82-28M286 216l74 26-48 28" fill="#E8A86A" stroke="#D7E0E8" stroke-width="4" stroke-linejoin="round"/>
  </g>
</svg>