<svg xmlns="http://www.w3.org/2000/svg" viewBox="0 0 512 512" role="img" aria-labelledby="sys17-title sys17-desc">
  <title id="sys17-title">Frostwood Rendszer mesterjavítás v3 — Eltávolítás és visszaállítás ikon</title>
  <desc id="sys17-desc">Sötét Frostwood izometrikus ikon: szemeteskuka és U-alakú vissza nyíl jelzi az eltávolítást és visszaállítást.</desc>
  <defs>
    <linearGradient id="sys17-bg" x1="0" y1="0" x2="1" y2="1"><stop offset="0%" stop-color="#1C1C1C"/><stop offset="100%" stop-color="#243140"/></linearGradient>
    <linearGradient id="sys17-top" x1="0" y1="0" x2="1" y2="1"><stop offset="0%" stop-color="#2A2A2A"/><stop offset="100%" stop-color="#32485C"/></linearGradient>
    <linearGradient id="sys17-left" x1="0" y1="0" x2="0" y2="1"><stop offset="0%" stop-color="#384C5F"/><stop offset="100%" stop-color="#2E4050"/></linearGradient>
    <linearGradient id="sys17-right" x1="0" y1="0" x2="0" y2="1"><stop offset="0%" stop-color="#4A6176"/><stop offset="100%" stop-color="#34495B"/></linearGradient>
    <linearGradient id="sys17-glass" x1="0" y1="0" x2="1" y2="1"><stop offset="0%" stop-color="#FFFFFF" stop-opacity="0.95"/><stop offset="100%" stop-color="#DCEBFA" stop-opacity="0.90"/></linearGradient>
    <linearGradient id="sys17-metal" x1="0" y1="0" x2="1" y2="1"><stop offset="0%" stop-color="#F4F7FA"/><stop offset="100%" stop-color="#8D99A6"/></linearGradient>
    <linearGradient id="sys17-blue" x1="0" y1="0" x2="1" y2="1"><stop offset="0%" stop-color="#BFD8F2"/><stop offset="100%" stop-color="#5A7FA6"/></linearGradient>
    <filter id="sys17-baseShadow" x="-20%" y="-20%" width="140%" height="140%"><feDropShadow dx="0" dy="12" stdDeviation="12" flood-color="#000000" flood-opacity="0.24"/></filter>
    <filter id="sys17-objectShadow" x="-20%" y="-20%" width="140%" height="140%"><feDropShadow dx="0" dy="8" stdDeviation="7" flood-color="#000000" flood-opacity="0.24"/></filter>
  </defs>
  <rect x="16" y="16" width="480" height="480" rx="36" fill="url(#sys17-bg)"/>
  <g aria-hidden="true" opacity="0.13" fill="none" stroke="#D7E0E8" stroke-width="2">
    <path d="M90 142 164 100 238 142 164 184Z"/>
    <path d="M164 184v70M90 142v70l74 42 74-42v-70"/>
    <path d="M292 100h94M292 124h68M292 148h86"/>
  </g>
  <ellipse cx="258" cy="394" rx="132" ry="32" fill="#000000" opacity="0.20" aria-hidden="true"/>
  <g filter="url(#sys17-baseShadow)">
    <polygon points="110,314 258,250 406,314 258,380" fill="url(#sys17-top)" stroke="#D7E0E8" stroke-width="3.5"/>
    <polygon points="110,314 110,362 258,428 258,380" fill="url(#sys17-left)" stroke="#D7E0E8" stroke-width="3.5"/>
    <polygon points="258,380 258,428 406,362 406,314" fill="url(#sys17-right)" stroke="#D7E0E8" stroke-width="3.5"/>
  </g>

  <g filter="url(#sys17-objectShadow)">
    <path d="M206 196h112l-14 120h-84z" fill="#D7E0E8" stroke="#D7E0E8" stroke-width="5"/>
    <path d="M190 180h144M228 154h68l10 26h-88z" stroke="#D7E0E8" stroke-width="7" stroke-linecap="round" fill="#4A6176"/>
    <path d="M236 216v74M264 216v74M292 216v74" stroke="#1C1C1C" stroke-width="5" stroke-linecap="round"/>
    <path d="M360 224c30 38 10 94-44 100M316 324l22-26 10 34z" fill="none" stroke="#E8A86A" stroke-width="8" stroke-linecap="round" stroke-linejoin="round"/>
  </g>
</svg>