<svg xmlns="http://www.w3.org/2000/svg" viewBox="0 0 512 512" role="img" aria-labelledby="spec-license-title spec-license-desc">
  <title id="spec-license-title">Frostwood Speciális elemek mesterjavítás — License mérleg ikon</title>
  <desc id="spec-license-desc">Részletes mérleg ikon a License modulhoz.</desc>
  <defs>
    <linearGradient id="spec-license-bg" x1="0" y1="0" x2="1" y2="1">
      <stop offset="0%" stop-color="#FBFBFB"/>
      <stop offset="100%" stop-color="#EEF4FB"/>
    </linearGradient>
    <linearGradient id="spec-license-top" x1="0" y1="0" x2="1" y2="1">
      <stop offset="0%" stop-color="#F7F9FB"/>
      <stop offset="100%" stop-color="#D8E2EC"/>
    </linearGradient>
    <linearGradient id="spec-license-left" x1="0" y1="0" x2="0" y2="1">
      <stop offset="0%" stop-color="#D5DEE8"/>
      <stop offset="100%" stop-color="#C6D1DB"/>
    </linearGradient>
    <linearGradient id="spec-license-right" x1="0" y1="0" x2="0" y2="1">
      <stop offset="0%" stop-color="#C6D1DB"/>
      <stop offset="100%" stop-color="#B2C0CD"/>
    </linearGradient>
    <linearGradient id="spec-license-glass" x1="0" y1="0" x2="1" y2="1">
      <stop offset="0%" stop-color="#FFFFFF" stop-opacity="0.98"/>
      <stop offset="100%" stop-color="#DCEBFA" stop-opacity="0.96"/>
    </linearGradient>
    <linearGradient id="spec-license-blue" x1="0" y1="0" x2="1" y2="1">
      <stop offset="0%" stop-color="#BFD8F2"/>
      <stop offset="100%" stop-color="#5A7FA6"/>
    </linearGradient>
    <linearGradient id="spec-license-metal" x1="0" y1="0" x2="1" y2="1">
      <stop offset="0%" stop-color="#F4F7FA"/>
      <stop offset="100%" stop-color="#8D99A6"/>
    </linearGradient>
    <filter id="spec-license-baseShadow" x="-20%" y="-20%" width="140%" height="140%">
      <feDropShadow dx="0" dy="12" stdDeviation="12" flood-color="#8D99A6" flood-opacity="0.22"/>
    </filter>
    <filter id="spec-license-objectShadow" x="-20%" y="-20%" width="140%" height="140%">
      <feDropShadow dx="0" dy="8" stdDeviation="7" flood-color="#8D99A6" flood-opacity="0.22"/>
    </filter>
  </defs>
  <rect x="16" y="16" width="480" height="480" rx="36" fill="url(#spec-license-bg)"/>
  <g aria-hidden="true" opacity="0.13" fill="none" stroke="#8D99A6" stroke-width="2">
    <path d="M90 142 164 100 238 142 164 184Z"/>
    <path d="M164 184v70M90 142v70l74 42 74-42v-70"/>
    <path d="M292 100h94M292 124h68M292 148h86"/>
  </g>
  <ellipse cx="258" cy="394" rx="132" ry="32" fill="#8D99A6" opacity="0.18" aria-hidden="true"/>
  <g filter="url(#spec-license-baseShadow)">
    <polygon points="110,314 258,250 406,314 258,380" fill="url(#spec-license-top)" stroke="#415A70" stroke-width="3.5"/>
    <polygon points="110,314 110,362 258,428 258,380" fill="url(#spec-license-left)" stroke="#415A70" stroke-width="3.5"/>
    <polygon points="258,380 258,428 406,362 406,314" fill="url(#spec-license-right)" stroke="#415A70" stroke-width="3.5"/>
  </g>

  <g filter="url(#spec-license-objectShadow)">
    <rect x="222" y="268" width="72" height="18" rx="8" fill="#5A7FA6" stroke="#415A70" stroke-width="3"/>
    <rect x="206" y="286" width="104" height="24" rx="10" fill="url(#spec-license-metal)" stroke="#415A70" stroke-width="3"/>
    <rect x="248" y="168" width="20" height="104" rx="8" fill="url(#spec-license-metal)" stroke="#415A70" stroke-width="4"/>
    <circle cx="258" cy="154" r="17" fill="#E8A86A" stroke="#415A70" stroke-width="4"/>
    <path d="M196 190h124" stroke="#415A70" stroke-width="8" stroke-linecap="round"/>
    <path d="M196 190 176 230M196 190 216 230M320 190 300 230M320 190 340 230" stroke="#415A70" stroke-width="3.5" stroke-linecap="round"/>
    <path d="M156 230h80q-10 34-40 34t-40-34Z" fill="#F7F9FB" stroke="#415A70" stroke-width="4"/>
    <path d="M280 230h80q-10 34-40 34t-40-34Z" fill="#F7F9FB" stroke="#415A70" stroke-width="4"/>
  </g>
</svg>