<svg xmlns="http://www.w3.org/2000/svg" viewBox="0 0 512 512" role="img" aria-labelledby="spec-diagram-title spec-diagram-desc">
  <title id="spec-diagram-title">Frostwood Speciális elemek mesterjavítás — Rendszerdiagram blueprint ikon</title>
  <desc id="spec-diagram-desc">Blueprint tervrajz és diagramkapcsolatok ikon a Rendszerdiagram modulhoz.</desc>
  <defs>
    <linearGradient id="spec-diagram-bg" x1="0" y1="0" x2="1" y2="1">
      <stop offset="0%" stop-color="#FBFBFB"/>
      <stop offset="100%" stop-color="#EEF4FB"/>
    </linearGradient>
    <linearGradient id="spec-diagram-top" x1="0" y1="0" x2="1" y2="1">
      <stop offset="0%" stop-color="#F7F9FB"/>
      <stop offset="100%" stop-color="#D8E2EC"/>
    </linearGradient>
    <linearGradient id="spec-diagram-left" x1="0" y1="0" x2="0" y2="1">
      <stop offset="0%" stop-color="#D5DEE8"/>
      <stop offset="100%" stop-color="#C6D1DB"/>
    </linearGradient>
    <linearGradient id="spec-diagram-right" x1="0" y1="0" x2="0" y2="1">
      <stop offset="0%" stop-color="#C6D1DB"/>
      <stop offset="100%" stop-color="#B2C0CD"/>
    </linearGradient>
    <linearGradient id="spec-diagram-glass" x1="0" y1="0" x2="1" y2="1">
      <stop offset="0%" stop-color="#FFFFFF" stop-opacity="0.98"/>
      <stop offset="100%" stop-color="#DCEBFA" stop-opacity="0.96"/>
    </linearGradient>
    <linearGradient id="spec-diagram-blue" x1="0" y1="0" x2="1" y2="1">
      <stop offset="0%" stop-color="#BFD8F2"/>
      <stop offset="100%" stop-color="#5A7FA6"/>
    </linearGradient>
    <linearGradient id="spec-diagram-metal" x1="0" y1="0" x2="1" y2="1">
      <stop offset="0%" stop-color="#F4F7FA"/>
      <stop offset="100%" stop-color="#8D99A6"/>
    </linearGradient>
    <filter id="spec-diagram-baseShadow" x="-20%" y="-20%" width="140%" height="140%">
      <feDropShadow dx="0" dy="12" stdDeviation="12" flood-color="#8D99A6" flood-opacity="0.22"/>
    </filter>
    <filter id="spec-diagram-objectShadow" x="-20%" y="-20%" width="140%" height="140%">
      <feDropShadow dx="0" dy="8" stdDeviation="7" flood-color="#8D99A6" flood-opacity="0.22"/>
    </filter>
  </defs>
  <rect x="16" y="16" width="480" height="480" rx="36" fill="url(#spec-diagram-bg)"/>
  <g aria-hidden="true" opacity="0.13" fill="none" stroke="#8D99A6" stroke-width="2">
    <path d="M90 142 164 100 238 142 164 184Z"/>
    <path d="M164 184v70M90 142v70l74 42 74-42v-70"/>
    <path d="M292 100h94M292 124h68M292 148h86"/>
  </g>
  <ellipse cx="258" cy="394" rx="132" ry="32" fill="#8D99A6" opacity="0.18" aria-hidden="true"/>
  <g filter="url(#spec-diagram-baseShadow)">
    <polygon points="110,314 258,250 406,314 258,380" fill="url(#spec-diagram-top)" stroke="#415A70" stroke-width="3.5"/>
    <polygon points="110,314 110,362 258,428 258,380" fill="url(#spec-diagram-left)" stroke="#415A70" stroke-width="3.5"/>
    <polygon points="258,380 258,428 406,362 406,314" fill="url(#spec-diagram-right)" stroke="#415A70" stroke-width="3.5"/>
  </g>

  <g filter="url(#spec-diagram-objectShadow)">
    <polygon points="154,180 320,142 374,222 208,262" fill="#DDEBFA" stroke="#415A70" stroke-width="4"/>
    <path d="M176 190 342 152M166 208 332 170M158 226 324 188M198 178 250 252M230 170 282 244M262 162 314 236" stroke="#8FB6D9" stroke-width="2" opacity="0.75" aria-hidden="true"/>
    <circle cx="204" cy="206" r="10" fill="#FFFFFF" stroke="#415A70" stroke-width="3"/>
    <circle cx="270" cy="188" r="10" fill="#FFFFFF" stroke="#415A70" stroke-width="3"/>
    <circle cx="314" cy="218" r="10" fill="#FFFFFF" stroke="#415A70" stroke-width="3"/>
    <path d="M214 203 260 191M278 193 305 213M214 211 305 220" stroke="#415A70" stroke-width="3" stroke-linecap="round"/>
    <g transform="translate(132 244) rotate(-16)">
      <rect x="0" y="0" width="86" height="36" rx="7" fill="#F8FBFF" stroke="#415A70" stroke-width="3"/>
      <ellipse cx="0" cy="18" rx="10" ry="18" fill="#D9E7F5" stroke="#415A70" stroke-width="3"/>
    </g>
  </g>
</svg>